<svg width="16" height="16" viewBox="0 0 16 16" fill="none" xmlns="http://www.w3.org/2000/svg">
<path d="M4.56 11.44C4.70667 11.5867 4.89333 11.66 5.12 11.66C5.34667 11.66 5.53333 11.5867 5.68 11.44L8 9.12L10.34 11.46C10.4867 11.6067 10.6701 11.6768 10.8904 11.6704C11.1107 11.664 11.2939 11.5872 11.44 11.44C11.5867 11.2933 11.66 11.1067 11.66 10.88C11.66 10.6533 11.5867 10.4667 11.44 10.32L9.12 8L11.46 5.66C11.6067 5.51333 11.6768 5.32987 11.6704 5.1096C11.664 4.88933 11.5872 4.70613 11.44 4.56C11.2933 4.41333 11.1067 4.34 10.88 4.34C10.6533 4.34 10.4667 4.41333 10.32 4.56L8 6.88L5.66 4.54C5.51333 4.39333 5.33013 4.32347 5.1104 4.3304C4.89067 4.33733 4.7072 4.41387 4.56 4.56C4.41333 4.70667 4.34 4.89333 4.34 5.12C4.34 5.34667 4.41333 5.53333 4.56 5.68L6.88 8L4.54 10.34C4.39333 10.4867 4.32347 10.6701 4.3304 10.8904C4.33733 11.1107 4.41387 11.2939 4.56 11.44ZM8 16C6.89333 16 5.85333 15.7899 4.88 15.3696C3.90667 14.9493 3.06 14.3795 2.34 13.66C1.62 12.94 1.05013 12.0933 0.6304 11.12C0.210667 10.1467 0.000533333 9.10667 0 8C0 6.89333 0.210133 5.85333 0.6304 4.88C1.05067 3.90667 1.62053 3.06 2.34 2.34C3.06 1.62 3.90667 1.05013 4.88 0.6304C5.85333 0.210667 6.89333 0.000533333 8 0C9.10667 0 10.1467 0.210133 11.12 0.6304C12.0933 1.05067 12.94 1.62053 13.66 2.34C14.38 3.06 14.9501 3.90667 15.3704 4.88C15.7907 5.85333 16.0005 6.89333 16 8C16 9.10667 15.7899 10.1467 15.3696 11.12C14.9493 12.0933 14.3795 12.94 13.66 13.66C12.94 14.38 12.0933 14.9501 11.12 15.3704C10.1467 15.7907 9.10667 16.0005 8 16Z" fill="#373F41"/>
</svg>
