<svg width="22" height="22" viewBox="0 0 22 22" fill="none" xmlns="http://www.w3.org/2000/svg">
<path d="M6.05731 18.8011C6.22731 19.3814 6.3973 19.9217 6.5473 20.4721C6.6973 21.0224 6.5473 20.9924 6.1773 20.9924H2.37731C2.31369 21.0045 2.24816 21.0021 2.1856 20.9853C2.12305 20.9685 2.06508 20.9378 2.01605 20.8955C1.96701 20.8532 1.92816 20.8003 1.9024 20.7408C1.87664 20.6814 1.86466 20.6169 1.8673 20.5521C1.5873 18.1373 1.30062 15.7259 1.00729 13.3178C0.99757 13.1912 0.99757 13.0641 1.00729 12.9375C1.00729 12.7374 1.08729 12.6173 1.28729 12.6173H4.03729C4.22729 12.6173 4.2773 12.7674 4.3273 12.9175L4.6073 13.8581C4.92856 13.8198 5.22251 13.6584 5.4273 13.4078C5.79364 12.9951 6.23473 12.6556 6.72729 12.4072C7.43058 12.085 8.21213 11.9739 8.97729 12.087C9.44584 12.156 9.89907 12.3049 10.3173 12.5273C11.0618 12.8023 11.8549 12.9215 12.6473 12.8775C13.2244 12.8904 13.7875 12.6991 14.2373 12.3372C14.5728 12.0665 14.9867 11.9115 15.4174 11.8953C15.848 11.8791 16.2724 12.0025 16.6273 12.2471C16.6619 12.2731 16.704 12.2871 16.7473 12.2871C16.7906 12.2871 16.8327 12.2731 16.8673 12.2471C17.1613 12.0805 17.5051 12.0242 17.8368 12.0884C18.1686 12.1526 18.4666 12.333 18.6773 12.5973C18.9425 12.4258 19.2515 12.3347 19.5673 12.3347C19.883 12.3347 20.1921 12.4258 20.4573 12.5973C20.5748 12.6698 20.6824 12.7572 20.7773 12.8575C21.0973 13.1977 21.0773 13.3778 20.7073 13.648L18.2073 15.4891C17.2773 16.1395 16.3373 16.7799 15.4273 17.4903C14.8877 17.8823 14.2677 18.1494 13.6122 18.2723C12.9567 18.3951 12.2822 18.3707 11.6373 18.2007C10.6873 18.0006 9.74729 17.8005 8.78729 17.6604C8.55392 17.6047 8.31118 17.601 8.0762 17.6494C7.84121 17.6978 7.61971 17.7972 7.4273 17.9406C6.9873 18.2508 6.51731 18.4909 6.05731 18.8011Z" stroke="#214B5A" stroke-miterlimit="10" stroke-linecap="round"/>
<path d="M13.8873 10.3159C13.8873 9.37535 13.8873 8.46478 13.8873 7.54422C13.855 7.20364 13.7172 6.88166 13.4931 6.62332C13.269 6.36497 12.9697 6.18317 12.6373 6.10335C12.5874 6.08522 12.5333 6.08222 12.4817 6.09467C12.4301 6.10713 12.3834 6.1345 12.3473 6.1734C12.176 6.34857 11.9714 6.48775 11.7455 6.58276C11.5197 6.67778 11.2773 6.72671 11.0323 6.72671C10.7873 6.72671 10.5448 6.67778 10.319 6.58276C10.0932 6.48775 9.88863 6.34857 9.71729 6.1734C9.65668 6.11348 9.57963 6.07297 9.49595 6.05693C9.41227 6.0409 9.32573 6.05011 9.24729 6.08338C8.96183 6.16839 8.70575 6.33144 8.50788 6.55418C8.31001 6.77692 8.17821 7.05046 8.12729 7.34409C8.04559 8.34251 8.02552 9.34502 8.06727 10.3459L13.8873 10.3159ZM7.75727 6.74375C7.65998 6.64781 7.52887 6.594 7.39228 6.594C7.25568 6.594 7.12458 6.64781 7.02729 6.74375C6.73771 6.99642 6.36648 7.13565 5.98227 7.13565C5.59806 7.13565 5.22687 6.99642 4.93729 6.74375C4.85229 6.65461 4.7389 6.59786 4.61664 6.58325C4.49438 6.56864 4.37086 6.59707 4.26728 6.66368C4.05146 6.75443 3.86412 6.90182 3.72507 7.09027C3.58602 7.27872 3.50041 7.50124 3.47727 7.73434C3.44703 8.30095 3.44703 8.86878 3.47727 9.43538H7.54728C7.48078 8.53271 7.55158 7.62516 7.75727 6.74375ZM14.4573 9.42537H18.5173C18.5173 8.89505 18.5173 8.42475 18.5173 7.91444C18.5175 7.65377 18.4444 7.39833 18.3065 7.17718C18.1686 6.95603 17.9714 6.77808 17.7373 6.66368C17.6429 6.59554 17.5269 6.56408 17.411 6.57513C17.2951 6.58617 17.1871 6.63896 17.1073 6.72372C16.8148 6.98257 16.4378 7.12551 16.0473 7.12551C15.6568 7.12551 15.2798 6.98257 14.9873 6.72372C14.9385 6.67 14.8791 6.6271 14.8128 6.59773C14.7465 6.56835 14.6748 6.55314 14.6023 6.55314C14.5298 6.55314 14.4581 6.56835 14.3918 6.59773C14.3255 6.6271 14.266 6.67 14.2173 6.72372C14.4331 7.60698 14.514 8.51786 14.4573 9.42537Z" stroke="#214B5A" stroke-miterlimit="10"/>
<path d="M9.52739 2.94149C9.52739 3.11159 9.52739 3.29167 9.52739 3.47178C9.55778 3.82493 9.71374 4.15545 9.96697 4.40331C10.2202 4.65118 10.5539 4.79999 10.9074 4.82264C11.2548 4.83512 11.5949 4.72141 11.8651 4.50256C12.1353 4.28371 12.3173 3.97449 12.3774 3.63191C12.4674 3.14239 12.4674 2.6405 12.3774 2.15097C12.3284 1.9053 12.2158 1.67682 12.0509 1.48834C11.886 1.29985 11.6745 1.158 11.4376 1.07696C11.2007 0.995916 10.9467 0.978504 10.701 1.02651C10.4553 1.07452 10.2264 1.18624 10.0374 1.3505C9.8281 1.55322 9.67208 1.80449 9.58312 2.08202C9.49415 2.35955 9.47501 2.65479 9.52739 2.94149Z" stroke="#214B5A" stroke-miterlimit="10"/>
<path d="M14.7773 3.62186C14.7773 3.87201 14.7773 4.01207 14.7773 4.15215C14.811 4.44435 14.9482 4.71484 15.164 4.91458C15.3798 5.11431 15.6599 5.23012 15.9537 5.24101C16.2474 5.25189 16.5354 5.15715 16.7653 4.97394C16.9953 4.79073 17.1521 4.53113 17.2073 4.24223C17.2073 3.93204 17.2073 3.63188 17.2073 3.32169C17.1902 3.10469 17.1182 2.89561 16.9979 2.71421C16.8777 2.5328 16.7133 2.38501 16.5201 2.28487C16.3269 2.18473 16.1115 2.13551 15.894 2.14184C15.6766 2.14817 15.4643 2.20988 15.2773 2.32109C15.0862 2.47406 14.9391 2.67513 14.8513 2.90371C14.7634 3.1323 14.7379 3.38015 14.7773 3.62186Z" stroke="#214B5A" stroke-miterlimit="10"/>
<path d="M7.20725 3.78198C7.20725 3.61188 7.20725 3.4318 7.20725 3.25169C7.18194 2.93587 7.03777 2.64141 6.8039 2.42783C6.57003 2.21424 6.26386 2.09742 5.94724 2.10097C5.63647 2.11084 5.34097 2.23814 5.12018 2.4572C4.8994 2.67626 4.76972 2.97081 4.75724 3.28168C4.73554 3.61486 4.73554 3.9491 4.75724 4.28228C4.77585 4.57967 4.90166 4.86021 5.1113 5.07183C5.32095 5.28344 5.60022 5.41179 5.89725 5.43301C6.19876 5.45976 6.49921 5.37153 6.73844 5.18597C6.97767 5.00041 7.138 4.73123 7.18726 4.4324C7.20726 4.24228 7.20725 4.00211 7.20725 3.78198Z" stroke="#214B5A" stroke-miterlimit="10"/>
<path d="M13.1074 14.7486C15.1874 14.6786 15.8874 14.5786 16.8474 12.2772" stroke="#214B5A" stroke-miterlimit="10" stroke-linecap="round"/>
<path d="M14.2073 15.8193C16.2773 15.7592 17.5573 14.9888 18.5173 12.6874" stroke="#214B5A" stroke-miterlimit="10" stroke-linecap="round"/>
<path d="M4.0773 20.1719C4.54122 20.1719 4.9173 19.7866 4.9173 19.3114C4.9173 18.8361 4.54122 18.4509 4.0773 18.4509C3.61339 18.4509 3.2373 18.8361 3.2373 19.3114C3.2373 19.7866 3.61339 20.1719 4.0773 20.1719Z" fill="#214B5A"/>
</svg>
