<svg width="32" height="32" viewBox="0 0 32 32" fill="none" xmlns="http://www.w3.org/2000/svg">
<circle cx="16" cy="16" r="16" fill="#2E6073" fill-opacity="0.13"/>
<path d="M15.87 17.8596C14.6926 17.8735 13.5377 17.5365 12.5524 16.8916C11.5672 16.2468 10.7963 15.3232 10.3379 14.2386C9.87954 13.1539 9.7544 11.9574 9.9785 10.8014C10.2026 9.64544 10.7658 8.58234 11.5963 7.74759C12.4268 6.91285 13.487 6.34423 14.6418 6.11423C15.7966 5.88423 16.9938 6.00323 18.0807 6.45609C19.1677 6.90894 20.0952 7.67517 20.7451 8.65708C21.395 9.63898 21.7379 10.7921 21.73 11.9696C21.7326 12.7413 21.5831 13.5059 21.2899 14.2198C20.9967 14.9336 20.5656 15.5827 20.0213 16.1297C19.477 16.6768 18.8302 17.1112 18.1179 17.408C17.4056 17.7048 16.6417 17.8583 15.87 17.8596Z" stroke="#2E6073" stroke-linecap="round" stroke-linejoin="round"/>
<path d="M6 25.6994C7.31544 23.4159 9.37279 21.6515 11.83 20.6994C13.3163 20.1331 14.9003 19.868 16.49 19.9194C18.3608 20.005 20.181 20.5543 21.7869 21.5179C23.3928 22.4814 24.734 23.829 25.69 25.4394C25.8126 25.6147 25.9165 25.8024 26 25.9994" stroke="#2E6073" stroke-linecap="round" stroke-linejoin="round"/>
</svg>
