<svg width="22" height="22" viewBox="0 0 22 22" fill="none" xmlns="http://www.w3.org/2000/svg">
<path d="M17.2496 4.75C17.8499 4.52159 18.1724 4.43564 18.8156 4.19772L20.9976 7.87128C20.3068 8.40424 19.6302 8.94195 18.9299 9.44635C18.8017 9.53517 18.6973 9.65409 18.6258 9.79265C18.5544 9.93121 18.5181 10.0852 18.5202 10.241V11.8018C18.5067 11.9475 18.5311 12.0942 18.5912 12.2276C18.6514 12.3611 18.7451 12.4767 18.8632 12.5632C19.5731 13.0819 20.2925 13.6243 20.988 14.1763L18.7346 17.8879C17.9437 17.5786 17.1576 17.2931 16.3858 16.9648C16.2444 16.8865 16.0854 16.8454 15.9237 16.8454C15.762 16.8454 15.603 16.8865 15.4616 16.9648L14.0609 17.7737C13.9374 17.8333 13.8299 17.9213 13.747 18.0305C13.6642 18.1397 13.6085 18.267 13.5845 18.4019C13.4559 19.2631 13.2986 20.1197 13.1557 21H8.79174C8.67264 20.2053 8.544 19.4345 8.45348 18.6588C8.43344 18.4606 8.36524 18.2703 8.25481 18.1045C8.14438 17.9386 7.99509 17.8022 7.81986 17.7071L6.52876 16.9791C6.4172 16.9025 6.28883 16.8539 6.15449 16.8373C6.02016 16.8207 5.88381 16.8367 5.75697 16.8839C4.91847 17.2027 4.07046 17.5073 3.17479 17.8356C2.44111 16.6031 1.74553 15.404 0.997559 14.1573C1.67407 13.6386 2.3363 13.1057 3.0271 12.6108C3.17983 12.5074 3.30079 12.3637 3.37651 12.1956C3.45222 12.0276 3.47968 11.8418 3.45586 11.6591V10.0031C3.43372 9.87811 3.38534 9.75922 3.3139 9.65424C3.24246 9.54926 3.14959 9.46057 3.04138 9.39401C2.3601 8.88009 1.70264 8.33762 1.01184 7.78563L3.2367 4.12158C4.04184 4.43564 4.83746 4.74018 5.61879 5.07328C5.77411 5.13477 5.94215 5.15738 6.10823 5.13914C6.27431 5.12089 6.43339 5.06234 6.57162 4.96859L8.02472 4.16442C8.12231 4.11126 8.20516 4.03474 8.26586 3.94173C8.32656 3.84871 8.3632 3.74209 8.37249 3.63145C8.50589 2.76065 8.66787 1.88984 8.81556 1H13.1748C13.2891 1.76612 13.4273 2.50846 13.4988 3.25554C13.5029 3.49498 13.5805 3.72738 13.7211 3.92138C13.8617 4.11539 14.0584 4.26166 14.2848 4.34048L15.0185 4.76874" stroke="#3A606E" stroke-miterlimit="10" stroke-linecap="round"/>
<path d="M7 14L15 8M15 8H11M15 8L14 11.5" stroke="#3A606E" stroke-miterlimit="10" stroke-linecap="round"/>
</svg>
