<svg width="60" height="60" viewBox="0 0 60 60" fill="none" xmlns="http://www.w3.org/2000/svg">
<path d="M52 0H8C3.58172 0 0 3.58172 0 8V52C0 56.4183 3.58172 60 8 60H52C56.4183 60 60 56.4183 60 52V8C60 3.58172 56.4183 0 52 0Z" fill="#3A606E"/>
<path d="M34.1477 23.7234V42.8534H25.8888V23.7234H17.4443V17.1467H42.5554V23.7234H34.1477Z" fill="white"/>
<path d="M38.8886 26.6602H21.1108V27.549H38.8886V26.6602Z" fill="white"/>
<path d="M38.8886 29.9934H21.1108V30.8823H38.8886V29.9934Z" fill="white"/>
<path d="M38.8886 33.3267H21.1108V34.2155H38.8886V33.3267Z" fill="white"/>
<path d="M38.8886 36.6599H21.1108V37.5488H38.8886V36.6599Z" fill="white"/>
</svg>
