<svg width="26" height="26" viewBox="0 0 26 26" fill="none" xmlns="http://www.w3.org/2000/svg">
<path d="M3.88379 16.6692C4.34756 15.7513 4.58257 14.735 4.5688 13.7069C4.5688 13.4122 4.5688 13.1125 4.5688 12.8027C4.49064 11.6657 4.55108 10.5233 4.7488 9.40086C4.7469 9.38426 4.7469 9.3675 4.7488 9.3509C4.7488 9.30594 4.7488 9.246 4.7838 9.17107C4.8188 9.09614 4.8738 8.8114 4.9538 8.56163C5.16598 7.89581 5.46524 7.26091 5.8438 6.67336C6.43271 5.74621 7.22305 4.96345 8.15615 4.38318C9.08924 3.80291 10.1411 3.44001 11.2338 3.32143H11.3288L14.8938 3.27148H14.9488C15.1348 3.28104 15.3201 3.30105 15.5038 3.33143C17.9438 3.68111 19.4038 5.35956 20.2338 6.86818C20.6197 7.57329 20.9266 8.31879 21.1488 9.09114M21.4488 12.543C21.4488 13.0425 21.4488 13.5421 21.4488 14.0416C21.4786 15.0454 21.7378 16.0292 22.2067 16.9175C22.6755 17.8059 23.3415 18.5753 24.1538 19.1669C24.4515 19.3984 24.6912 19.696 24.8538 20.0361C24.943 20.2119 24.992 20.4052 24.9972 20.6022C25.0024 20.7992 24.9637 20.9949 24.8838 21.1751C24.6964 21.5342 24.4059 21.8293 24.0496 22.0224C23.6933 22.2156 23.2873 22.298 22.8838 22.2591H3.0338C2.62793 22.2629 2.22694 22.1705 1.8638 21.9893C1.50907 21.8144 1.23262 21.5133 1.08879 21.1451C0.959293 20.7946 0.971855 20.4075 1.12379 20.0661C1.27126 19.7209 1.50974 19.4222 1.8138 19.2019" stroke="#3A606E" stroke-width="1.5" stroke-miterlimit="10" stroke-linecap="round"/>
<path d="M16.8189 22.249C16.5511 23.0502 16.0378 23.747 15.3518 24.2407C14.6658 24.7344 13.8418 25 12.9963 25C12.1509 25 11.3268 24.7344 10.6408 24.2407C9.95484 23.747 9.44162 23.0502 9.17383 22.249" stroke="#3A606E" stroke-width="1.5" stroke-miterlimit="10" stroke-linecap="round"/>
<path d="M10.499 3.36131C10.5238 2.83225 10.7194 2.32542 11.0565 1.91662C11.3936 1.50782 11.854 1.21901 12.369 1.09339C12.9065 0.942275 13.4791 0.975275 13.9957 1.18713C14.5122 1.39898 14.9429 1.77748 15.219 2.26231C15.3879 2.59272 15.4834 2.95567 15.499 3.32634" stroke="#3A606E" stroke-width="1.5" stroke-miterlimit="10" stroke-linecap="round"/>
</svg>
