<svg width="22" height="22" viewBox="0 0 22 22" fill="none" xmlns="http://www.w3.org/2000/svg">
<path d="M2.71016 13.6747C2.45344 13.5796 2.23914 13.3985 2.10507 13.1634C1.97101 12.9284 1.92579 12.6544 1.97736 12.3897C2.02354 12.1665 2.13888 11.9627 2.30754 11.8063C2.4762 11.6499 2.68989 11.5485 2.9195 11.516C3.19177 11.4721 3.47113 11.5224 3.70981 11.6583C3.94848 11.7943 4.13166 12.0073 4.22808 12.2612L5.45815 11.0534C5.5507 10.9209 5.67478 10.8125 5.81955 10.7376C5.96433 10.6627 6.12547 10.6235 6.28911 10.6235C6.45274 10.6235 6.61396 10.6627 6.75874 10.7376C6.90352 10.8125 7.02751 10.9209 7.12007 11.0534L8.33704 12.3384C8.7427 11.7216 9.13527 11.5031 9.64562 11.6059C9.86667 11.6489 10.0701 11.7545 10.2306 11.9098C10.3911 12.0652 10.5016 12.2633 10.5485 12.4797C10.6532 12.9937 10.4308 13.4049 9.81574 13.7647L11.1243 15.0497C11.2566 15.138 11.3648 15.2568 11.4396 15.3957C11.5144 15.5345 11.5535 15.6892 11.5535 15.8463C11.5535 16.0034 11.5144 16.1581 11.4396 16.297C11.3648 16.4358 11.2566 16.5546 11.1243 16.643L9.81574 17.8509C10.0733 17.9458 10.289 18.1263 10.4252 18.361C10.5615 18.5957 10.6097 18.8699 10.5616 19.1359C10.5219 19.3602 10.4126 19.567 10.2486 19.728C10.0847 19.889 9.87407 19.9964 9.64562 20.0354C9.14836 20.1253 8.7427 19.9069 8.33704 19.3029L7.02846 20.5879C6.93801 20.7151 6.81762 20.819 6.67751 20.8908C6.5374 20.9625 6.38172 21 6.22369 21C6.06567 21 5.90999 20.9625 5.76988 20.8908C5.62976 20.819 5.50938 20.7151 5.41893 20.5879L1.40158 16.476C1.27727 16.3878 1.17604 16.272 1.10623 16.1379C1.03641 16.0039 1 15.8556 1 15.705C1 15.5545 1.03641 15.406 1.10623 15.272C1.17604 15.138 1.27727 15.0221 1.40158 14.934L2.71016 13.6747Z" stroke="#214B5A" stroke-linecap="round" stroke-linejoin="round"/>
<path d="M19.3813 8.2519C19.6365 8.3491 19.8492 8.53056 19.983 8.76506C20.1167 8.99955 20.163 9.27244 20.1141 9.53687C20.0679 9.76012 19.9527 9.96389 19.784 10.1203C19.6153 10.2767 19.4016 10.3782 19.172 10.4107C18.8997 10.4546 18.6203 10.4042 18.3816 10.2683C18.143 10.1324 17.9598 9.91928 17.8634 9.66542L16.6333 10.8862C16.5389 11.0161 16.4142 11.1221 16.2697 11.1952C16.1251 11.2683 15.9649 11.3064 15.8023 11.3064C15.6398 11.3064 15.4796 11.2683 15.335 11.1952C15.1905 11.1221 15.0658 11.0161 14.9714 10.8862L13.7413 9.67828C13.3487 10.2822 12.9562 10.5007 12.4327 10.3979C12.2103 10.3582 12.0052 10.2535 11.8441 10.0976C11.683 9.94178 11.5735 9.74195 11.5298 9.52409C11.4251 9.0101 11.6476 8.61176 12.2626 8.23912L10.954 6.95414C10.8218 6.86575 10.7136 6.74689 10.6388 6.60804C10.564 6.46918 10.5249 6.31447 10.5249 6.15739C10.5249 6.0003 10.564 5.84567 10.6388 5.70681C10.7136 5.56796 10.8218 5.4491 10.954 5.36071C11.3597 4.94952 11.7784 4.55124 12.2626 4.14005C12.005 4.04514 11.7894 3.86467 11.6531 3.62995C11.5169 3.39523 11.4686 3.12108 11.5167 2.85507C11.5552 2.63155 11.6645 2.42561 11.8289 2.26646C11.9933 2.10732 12.2046 2.00304 12.4327 1.96844C12.93 1.86564 13.3226 2.08408 13.7413 2.68802L14.9845 1.40304C15.0753 1.27837 15.1951 1.17676 15.3339 1.10666C15.4727 1.03657 15.6266 1 15.7827 1C15.9388 1 16.0927 1.03657 16.2315 1.10666C16.3703 1.17676 16.4901 1.27837 16.5809 1.40304L20.5983 5.33506C20.7226 5.42318 20.8238 5.53897 20.8936 5.67301C20.9634 5.80705 20.9998 5.95546 20.9998 6.10602C20.9998 6.25657 20.9634 6.40498 20.8936 6.53902C20.8238 6.67306 20.7226 6.78893 20.5983 6.87705L19.3813 8.2519Z" stroke="#214B5A" stroke-linecap="round" stroke-linejoin="round"/>
<path d="M13.4404 16.5659L13.6105 17.5296" stroke="#214B5A" stroke-linecap="round" stroke-linejoin="round"/>
<path d="M14.5396 14.9983L15.0106 15.8592" stroke="#214B5A" stroke-linecap="round" stroke-linejoin="round"/>
<path d="M16.3457 14.5609L17.1963 15.0749" stroke="#214B5A" stroke-linecap="round" stroke-linejoin="round"/>
<path d="M8.32392 5.88792L8.15381 4.92419" stroke="#214B5A" stroke-linecap="round" stroke-linejoin="round"/>
<path d="M7.23769 7.45566L6.7666 6.59473" stroke="#214B5A" stroke-linecap="round" stroke-linejoin="round"/>
<path d="M5.43212 7.9051L4.58154 7.39111" stroke="#214B5A" stroke-linecap="round" stroke-linejoin="round"/>
</svg>
