<svg width="22" height="22" viewBox="0 0 22 22" fill="none" xmlns="http://www.w3.org/2000/svg">
<path d="M13.7778 17.4444H3.22222C2 17.4444 1 16.4444 1 15.2222V3.22222C1 2 2 1 3.22222 1H13.7778C15 1 16 2 16 3.22222V15.2222C16 16.4444 15 17.4444 13.7778 17.4444Z" stroke="#214B5A" stroke-miterlimit="10" stroke-linecap="round" stroke-linejoin="round"/>
<path d="M6 17.4442V18.6664C6 19.9998 7 20.9998 8.11111 20.9998H18.8889C19.8889 20.9998 20.7778 20.222 21 19.222H16.5556" stroke="#214B5A" stroke-miterlimit="10" stroke-linecap="round" stroke-linejoin="round"/>
<path d="M16 4.55579H18.7778C20 4.55579 20.8889 5.6669 20.8889 6.88912V15.6669" stroke="#214B5A" stroke-miterlimit="10" stroke-linecap="round" stroke-linejoin="round"/>
<path d="M15.9999 13.889H8.22217" stroke="#214B5A" stroke-miterlimit="10" stroke-linecap="round" stroke-linejoin="round"/>
</svg>
