<svg width="18" height="18" viewBox="0 0 18 18" fill="none" xmlns="http://www.w3.org/2000/svg">
<path d="M4.08369 13.9645C6.2812 12.0196 8.4787 10.0747 10.6762 8.12983C10.876 7.95302 11.0757 7.74085 11.1557 7.49332C11.3554 7.06899 11.2755 6.64465 10.9159 6.3264C10.5563 6.00814 10.0769 5.93742 9.59743 6.11423C9.3577 6.18495 9.15793 6.3264 8.99811 6.46784C6.60083 8.55417 4.20356 10.6405 1.84623 12.7622C0.567688 13.8937 0.767461 15.6972 2.24578 16.5812C3.36451 17.2531 4.84283 17.1116 5.8417 16.1922C8.15906 14.1413 10.4365 12.0903 12.7538 10.004C13.7927 9.08459 14.8315 8.16519 15.8703 7.21043C18.0279 5.15947 16.9491 1.8355 13.8726 1.12827C12.3143 0.774654 10.9559 1.16363 9.7972 2.15375C6.96042 4.62905 4.1636 7.10435 1.32683 9.57965" stroke="#214B5A" stroke-miterlimit="10" stroke-linecap="round" stroke-linejoin="round"/>
</svg>
