<svg width="18" height="18" viewBox="0 0 18 18" fill="none" xmlns="http://www.w3.org/2000/svg">
<path d="M1 7.1V6.1V3.7C1 3 1.5 2.5 2.2 2.5H4.9H12.9H15.8C16.5 2.5 17 3 17 3.7V6.1V12.9" stroke="#3A606E" stroke-miterlimit="10" stroke-linecap="round" stroke-linejoin="round"/>
<path d="M17 15.7C17 16.5 16.5 17 15.8 17H2.2C1.5 17 1 16.5 1 15.8V9.90002" stroke="#3A606E" stroke-miterlimit="10" stroke-linecap="round" stroke-linejoin="round"/>
<path d="M12.9 1V4.3" stroke="#3A606E" stroke-miterlimit="10" stroke-linecap="round" stroke-linejoin="round"/>
<path d="M4.89999 1V4.3" stroke="#3A606E" stroke-miterlimit="10" stroke-linecap="round" stroke-linejoin="round"/>
<path d="M1 6.09998H17" stroke="#3A606E" stroke-miterlimit="10" stroke-linecap="round" stroke-linejoin="round"/>
<path d="M3.8 9.5H5.6" stroke="#3A606E" stroke-miterlimit="10" stroke-linecap="round" stroke-linejoin="round"/>
<path d="M7.89999 9.5H9.69999" stroke="#3A606E" stroke-miterlimit="10" stroke-linecap="round" stroke-linejoin="round"/>
<path d="M12 9.5H13.8" stroke="#3A606E" stroke-miterlimit="10" stroke-linecap="round" stroke-linejoin="round"/>
<path d="M3.8 12.3H5.6" stroke="#3A606E" stroke-miterlimit="10" stroke-linecap="round" stroke-linejoin="round"/>
<path d="M7.89999 12.3H9.69999" stroke="#3A606E" stroke-miterlimit="10" stroke-linecap="round" stroke-linejoin="round"/>
<path d="M12 12.3H13.8" stroke="#3A606E" stroke-miterlimit="10" stroke-linecap="round" stroke-linejoin="round"/>
</svg>
