<svg width="12" height="14" viewBox="0 0 12 14" fill="none" xmlns="http://www.w3.org/2000/svg">
<path d="M4.77751 4.22115C4.73491 4.17555 4.68283 4.13978 4.62493 4.11632C4.56703 4.09286 4.50468 4.08235 4.44226 4.0854C4.3814 4.08245 4.32064 4.09308 4.26445 4.11658C4.20825 4.14008 4.15804 4.1758 4.11749 4.22115C4.06986 4.26712 4.03227 4.32244 4.00703 4.38356C3.98179 4.44468 3.96946 4.5103 3.97082 4.57638V10.2701C3.97 10.4064 4.02263 10.5376 4.11749 10.6357C4.15933 10.6795 4.20978 10.7141 4.26566 10.7374C4.32155 10.7608 4.38166 10.7724 4.44226 10.7716C4.50539 10.7726 4.56801 10.7601 4.62586 10.7348C4.6837 10.7096 4.73543 10.6722 4.77751 10.6253C4.82377 10.5788 4.85977 10.5232 4.88323 10.462C4.90668 10.4009 4.91707 10.3355 4.91371 10.2701V4.57638C4.91707 4.51098 4.90668 4.44562 4.88323 4.38445C4.85977 4.32328 4.82377 4.26763 4.77751 4.22115ZM7.92045 4.22115C7.87784 4.17555 7.82577 4.13978 7.76786 4.11632C7.70996 4.09286 7.64762 4.08235 7.58519 4.0854C7.52433 4.08245 7.46358 4.09308 7.40738 4.11658C7.35119 4.14008 7.30098 4.1758 7.26043 4.22115C7.2128 4.26712 7.1752 4.32244 7.14997 4.38356C7.12473 4.44468 7.1124 4.5103 7.11376 4.57638V10.2701C7.11294 10.4064 7.16557 10.5376 7.26043 10.6357C7.30226 10.6795 7.35271 10.7141 7.4086 10.7374C7.46449 10.7608 7.5246 10.7724 7.58519 10.7716C7.64833 10.7726 7.71095 10.7601 7.76879 10.7348C7.82664 10.7096 7.87836 10.6722 7.92045 10.6253C7.96671 10.5788 8.00271 10.5232 8.02616 10.462C8.04962 10.4009 8.06001 10.3355 8.05665 10.2701V4.57638C8.06001 4.51098 8.04962 4.44562 8.02616 4.38445C8.00271 4.32328 7.96671 4.26763 7.92045 4.22115ZM7.92045 4.22115C7.87784 4.17555 7.82577 4.13978 7.76786 4.11632C7.70996 4.09286 7.64762 4.08235 7.58519 4.0854C7.52433 4.08245 7.46358 4.09308 7.40738 4.11658C7.35119 4.14008 7.30098 4.1758 7.26043 4.22115C7.2128 4.26712 7.1752 4.32244 7.14997 4.38356C7.12473 4.44468 7.1124 4.5103 7.11376 4.57638V10.2701C7.11294 10.4064 7.16557 10.5376 7.26043 10.6357C7.30226 10.6795 7.35271 10.7141 7.4086 10.7374C7.46449 10.7608 7.5246 10.7724 7.58519 10.7716C7.64833 10.7726 7.71095 10.7601 7.76879 10.7348C7.82664 10.7096 7.87836 10.6722 7.92045 10.6253C7.96671 10.5788 8.00271 10.5232 8.02616 10.462C8.04962 10.4009 8.06001 10.3355 8.05665 10.2701V4.57638C8.06001 4.51098 8.04962 4.44562 8.02616 4.38445C8.00271 4.32328 7.96671 4.26763 7.92045 4.22115ZM4.77751 4.22115C4.73491 4.17555 4.68283 4.13978 4.62493 4.11632C4.56703 4.09286 4.50468 4.08235 4.44226 4.0854C4.3814 4.08245 4.32064 4.09308 4.26445 4.11658C4.20825 4.14008 4.15804 4.1758 4.11749 4.22115C4.06986 4.26712 4.03227 4.32244 4.00703 4.38356C3.98179 4.44468 3.96946 4.5103 3.97082 4.57638V10.2701C3.97 10.4064 4.02263 10.5376 4.11749 10.6357C4.15933 10.6795 4.20978 10.7141 4.26566 10.7374C4.32155 10.7608 4.38166 10.7724 4.44226 10.7716C4.50539 10.7726 4.56801 10.7601 4.62586 10.7348C4.6837 10.7096 4.73543 10.6722 4.77751 10.6253C4.82377 10.5788 4.85977 10.5232 4.88323 10.462C4.90668 10.4009 4.91707 10.3355 4.91371 10.2701V4.57638C4.91707 4.51098 4.90668 4.44562 4.88323 4.38445C4.85977 4.32328 4.82377 4.26763 4.77751 4.22115ZM4.77751 4.22115C4.73491 4.17555 4.68283 4.13978 4.62493 4.11632C4.56703 4.09286 4.50468 4.08235 4.44226 4.0854C4.3814 4.08245 4.32064 4.09308 4.26445 4.11658C4.20825 4.14008 4.15804 4.1758 4.11749 4.22115C4.06986 4.26712 4.03227 4.32244 4.00703 4.38356C3.98179 4.44468 3.96946 4.5103 3.97082 4.57638V10.2701C3.97 10.4064 4.02263 10.5376 4.11749 10.6357C4.15933 10.6795 4.20978 10.7141 4.26566 10.7374C4.32155 10.7608 4.38166 10.7724 4.44226 10.7716C4.50539 10.7726 4.56801 10.7601 4.62586 10.7348C4.6837 10.7096 4.73543 10.6722 4.77751 10.6253C4.82377 10.5788 4.85977 10.5232 4.88323 10.462C4.90668 10.4009 4.91707 10.3355 4.91371 10.2701V4.57638C4.91707 4.51098 4.90668 4.44562 4.88323 4.38445C4.85977 4.32328 4.82377 4.26763 4.77751 4.22115ZM7.92045 4.22115C7.87784 4.17555 7.82577 4.13978 7.76786 4.11632C7.70996 4.09286 7.64762 4.08235 7.58519 4.0854C7.52433 4.08245 7.46358 4.09308 7.40738 4.11658C7.35119 4.14008 7.30098 4.1758 7.26043 4.22115C7.2128 4.26712 7.1752 4.32244 7.14997 4.38356C7.12473 4.44468 7.1124 4.5103 7.11376 4.57638V10.2701C7.11294 10.4064 7.16557 10.5376 7.26043 10.6357C7.30226 10.6795 7.35271 10.7141 7.4086 10.7374C7.46449 10.7608 7.5246 10.7724 7.58519 10.7716C7.64833 10.7726 7.71095 10.7601 7.76879 10.7348C7.82664 10.7096 7.87836 10.6722 7.92045 10.6253C7.96671 10.5788 8.00271 10.5232 8.02616 10.462C8.04962 10.4009 8.06001 10.3355 8.05665 10.2701V4.57638C8.06001 4.51098 8.04962 4.44562 8.02616 4.38445C8.00271 4.32328 7.96671 4.26763 7.92045 4.22115ZM7.92045 4.22115C7.87784 4.17555 7.82577 4.13978 7.76786 4.11632C7.70996 4.09286 7.64762 4.08235 7.58519 4.0854C7.52433 4.08245 7.46358 4.09308 7.40738 4.11658C7.35119 4.14008 7.30098 4.1758 7.26043 4.22115C7.2128 4.26712 7.1752 4.32244 7.14997 4.38356C7.12473 4.44468 7.1124 4.5103 7.11376 4.57638V10.2701C7.11294 10.4064 7.16557 10.5376 7.26043 10.6357C7.30226 10.6795 7.35271 10.7141 7.4086 10.7374C7.46449 10.7608 7.5246 10.7724 7.58519 10.7716C7.64833 10.7726 7.71095 10.7601 7.76879 10.7348C7.82664 10.7096 7.87836 10.6722 7.92045 10.6253C7.96671 10.5788 8.00271 10.5232 8.02616 10.462C8.04962 10.4009 8.06001 10.3355 8.05665 10.2701V4.57638C8.06001 4.51098 8.04962 4.44562 8.02616 4.38445C8.00271 4.32328 7.96671 4.26763 7.92045 4.22115ZM4.44226 4.0854C4.3814 4.08245 4.32064 4.09308 4.26445 4.11658C4.20825 4.14008 4.15804 4.1758 4.11749 4.22115C4.06986 4.26712 4.03227 4.32244 4.00703 4.38356C3.98179 4.44468 3.96946 4.5103 3.97082 4.57638V10.2701C3.97 10.4064 4.02263 10.5376 4.11749 10.6357C4.15933 10.6795 4.20978 10.7141 4.26566 10.7374C4.32155 10.7608 4.38166 10.7724 4.44226 10.7716C4.50539 10.7726 4.56801 10.7601 4.62586 10.7348C4.6837 10.7096 4.73543 10.6722 4.77751 10.6253C4.82377 10.5788 4.85977 10.5232 4.88323 10.462C4.90668 10.4009 4.91707 10.3355 4.91371 10.2701V4.57638C4.91707 4.51098 4.90668 4.44562 4.88323 4.38445C4.85977 4.32328 4.82377 4.26763 4.77751 4.22115C4.73491 4.17555 4.68283 4.13978 4.62493 4.11632C4.56703 4.09286 4.50468 4.08235 4.44226 4.0854ZM11.8491 0.951241C11.8065 0.905645 11.7544 0.86987 11.6965 0.846412C11.6386 0.822955 11.5763 0.812376 11.5139 0.815423H8.05665V0.491563C8.06001 0.426162 8.04962 0.360735 8.02616 0.299568C8.00271 0.2384 7.96671 0.182813 7.92045 0.13633C7.87784 0.0907342 7.82577 0.0549588 7.76786 0.0315015C7.70996 0.00804431 7.64762 -0.00253472 7.58519 0.00051198H4.44226C4.3814 -0.00243309 4.32064 0.00825709 4.26445 0.0317566C4.20825 0.0552561 4.15804 0.090975 4.11749 0.13633C4.06986 0.182296 4.03227 0.237557 4.00703 0.298675C3.98179 0.359793 3.96946 0.425481 3.97082 0.491563V0.815423H0.471691C0.410827 0.812478 0.350076 0.823104 0.293881 0.846604C0.237687 0.870103 0.187476 0.905886 0.146924 0.951241C0.0992953 0.997207 0.0616825 1.05247 0.036446 1.11359C0.0112094 1.1747 -0.00110775 1.24033 0.000254147 1.30641C-0.00192905 1.37415 0.0099727 1.4416 0.0352151 1.50453C0.0604575 1.56746 0.0984932 1.62455 0.146924 1.6721C0.187476 1.71745 0.237687 1.75317 0.293881 1.77667C0.350076 1.80017 0.410827 1.8108 0.471691 1.80785H0.785988V12.6834C0.783129 12.8557 0.815049 13.0268 0.879841 13.1865C0.944632 13.3462 1.04097 13.4914 1.16314 13.6132C1.2737 13.7365 1.40942 13.8348 1.5612 13.9014C1.71299 13.9681 1.87731 14.0016 2.04316 13.9998H9.9005C10.0681 14.0031 10.2344 13.9703 10.3881 13.9036C10.5418 13.8369 10.6793 13.7379 10.791 13.6132C10.9118 13.4909 11.0065 13.3454 11.0695 13.1856C11.1325 13.0258 11.1625 12.855 11.1577 12.6834V1.82877H11.4824C11.5433 1.83171 11.6041 1.82102 11.6602 1.79752C11.7164 1.77402 11.7667 1.73831 11.8072 1.69295C11.9074 1.61586 11.9747 1.50396 11.9958 1.37955C12.0059 1.30488 11.9978 1.22887 11.9723 1.15797C11.9467 1.08706 11.9045 1.02332 11.8491 0.972092V0.951241ZM10.2567 12.9968H1.77078V1.82877H10.2567V12.9968ZM7.58519 10.782C7.64833 10.783 7.71095 10.7705 7.76879 10.7453C7.82664 10.72 7.87836 10.6827 7.92045 10.6357C7.96671 10.5893 8.00271 10.5337 8.02616 10.4725C8.04962 10.4113 8.06001 10.346 8.05665 10.2806V4.58684C8.06001 4.52144 8.04962 4.45608 8.02616 4.39491C8.00271 4.33374 7.96671 4.27809 7.92045 4.23161C7.87784 4.18601 7.82577 4.15024 7.76786 4.12678C7.70996 4.10332 7.64762 4.09274 7.58519 4.09579C7.52433 4.09284 7.46358 4.10353 7.40738 4.12703C7.35119 4.15053 7.30098 4.18625 7.26043 4.23161C7.2128 4.27757 7.1752 4.33284 7.14997 4.39395C7.12473 4.45507 7.1124 4.52076 7.11376 4.58684V10.2806C7.11294 10.4169 7.16557 10.5481 7.26043 10.6462C7.30226 10.6899 7.35271 10.7245 7.4086 10.7479C7.46449 10.7713 7.5246 10.7829 7.58519 10.782ZM4.44226 10.782C4.50539 10.783 4.56801 10.7705 4.62586 10.7453C4.6837 10.72 4.73543 10.6827 4.77751 10.6357C4.82377 10.5893 4.85977 10.5337 4.88323 10.4725C4.90668 10.4113 4.91707 10.346 4.91371 10.2806V4.58684C4.91707 4.52144 4.90668 4.45608 4.88323 4.39491C4.85977 4.33374 4.82377 4.27809 4.77751 4.23161C4.73491 4.18601 4.68283 4.15024 4.62493 4.12678C4.56703 4.10332 4.50468 4.09274 4.44226 4.09579C4.3814 4.09284 4.32064 4.10353 4.26445 4.12703C4.20825 4.15053 4.15804 4.18625 4.11749 4.23161C4.06986 4.27757 4.03227 4.33284 4.00703 4.39395C3.98179 4.45507 3.96946 4.52076 3.97082 4.58684V10.2806C3.97 10.4169 4.02263 10.5481 4.11749 10.6462C4.15933 10.6899 4.20978 10.7245 4.26566 10.7479C4.32155 10.7713 4.38166 10.7829 4.44226 10.782ZM4.77751 4.23161C4.73491 4.18601 4.68283 4.15024 4.62493 4.12678C4.56703 4.10332 4.50468 4.09274 4.44226 4.09579C4.3814 4.09284 4.32064 4.10353 4.26445 4.12703C4.20825 4.15053 4.15804 4.18625 4.11749 4.23161C4.06986 4.27757 4.03227 4.33284 4.00703 4.39395C3.98179 4.45507 3.96946 4.52076 3.97082 4.58684V10.2806C3.97 10.4169 4.02263 10.5481 4.11749 10.6462C4.15933 10.6899 4.20978 10.7245 4.26566 10.7479C4.32155 10.7713 4.38166 10.7829 4.44226 10.782C4.50539 10.783 4.56801 10.7705 4.62586 10.7453C4.6837 10.72 4.73543 10.6827 4.77751 10.6357C4.82377 10.5893 4.85977 10.5337 4.88323 10.4725C4.90668 10.4113 4.91707 10.346 4.91371 10.2806V4.58684C4.91858 4.51972 4.90893 4.45232 4.88543 4.38923C4.86194 4.32615 4.82513 4.26883 4.77751 4.22115V4.23161ZM7.92045 4.23161C7.87784 4.18601 7.82577 4.15024 7.76786 4.12678C7.70996 4.10332 7.64762 4.09274 7.58519 4.09579C7.52433 4.09284 7.46358 4.10353 7.40738 4.12703C7.35119 4.15053 7.30098 4.18625 7.26043 4.23161C7.2128 4.27757 7.1752 4.33284 7.14997 4.39395C7.12473 4.45507 7.1124 4.52076 7.11376 4.58684V10.2806C7.11294 10.4169 7.16557 10.5481 7.26043 10.6462C7.30226 10.6899 7.35271 10.7245 7.4086 10.7479C7.46449 10.7713 7.5246 10.7829 7.58519 10.782C7.64833 10.783 7.71095 10.7705 7.76879 10.7453C7.82664 10.72 7.87836 10.6827 7.92045 10.6357C7.96671 10.5893 8.00271 10.5337 8.02616 10.4725C8.04962 10.4113 8.06001 10.346 8.05665 10.2806V4.58684C8.06151 4.51972 8.05186 4.45232 8.02837 4.38923C8.00487 4.32615 7.96807 4.26883 7.92045 4.22115V4.23161ZM7.92045 4.23161C7.87784 4.18601 7.82577 4.15024 7.76786 4.12678C7.70996 4.10332 7.64762 4.09274 7.58519 4.09579C7.52433 4.09284 7.46358 4.10353 7.40738 4.12703C7.35119 4.15053 7.30098 4.18625 7.26043 4.23161C7.2128 4.27757 7.1752 4.33284 7.14997 4.39395C7.12473 4.45507 7.1124 4.52076 7.11376 4.58684V10.2806C7.11294 10.4169 7.16557 10.5481 7.26043 10.6462C7.30226 10.6899 7.35271 10.7245 7.4086 10.7479C7.46449 10.7713 7.5246 10.7829 7.58519 10.782C7.64833 10.783 7.71095 10.7705 7.76879 10.7453C7.82664 10.72 7.87836 10.6827 7.92045 10.6357C7.96671 10.5893 8.00271 10.5337 8.02616 10.4725C8.04962 10.4113 8.06001 10.346 8.05665 10.2806V4.58684C8.06151 4.51972 8.05186 4.45232 8.02837 4.38923C8.00487 4.32615 7.96807 4.26883 7.92045 4.22115V4.23161ZM4.77751 4.23161C4.73491 4.18601 4.68283 4.15024 4.62493 4.12678C4.56703 4.10332 4.50468 4.09274 4.44226 4.09579C4.3814 4.09284 4.32064 4.10353 4.26445 4.12703C4.20825 4.15053 4.15804 4.18625 4.11749 4.23161C4.06986 4.27757 4.03227 4.33284 4.00703 4.39395C3.98179 4.45507 3.96946 4.52076 3.97082 4.58684V10.2806C3.97 10.4169 4.02263 10.5481 4.11749 10.6462C4.15933 10.6899 4.20978 10.7245 4.26566 10.7479C4.32155 10.7713 4.38166 10.7829 4.44226 10.782C4.50539 10.783 4.56801 10.7705 4.62586 10.7453C4.6837 10.72 4.73543 10.6827 4.77751 10.6357C4.82377 10.5893 4.85977 10.5337 4.88323 10.4725C4.90668 10.4113 4.91707 10.346 4.91371 10.2806V4.58684C4.91858 4.51972 4.90893 4.45232 4.88543 4.38923C4.86194 4.32615 4.82513 4.26883 4.77751 4.22115V4.23161ZM4.77751 4.23161C4.73491 4.18601 4.68283 4.15024 4.62493 4.12678C4.56703 4.10332 4.50468 4.09274 4.44226 4.09579C4.3814 4.09284 4.32064 4.10353 4.26445 4.12703C4.20825 4.15053 4.15804 4.18625 4.11749 4.23161C4.06986 4.27757 4.03227 4.33284 4.00703 4.39395C3.98179 4.45507 3.96946 4.52076 3.97082 4.58684V10.2806C3.97 10.4169 4.02263 10.5481 4.11749 10.6462C4.15933 10.6899 4.20978 10.7245 4.26566 10.7479C4.32155 10.7713 4.38166 10.7829 4.44226 10.782C4.50539 10.783 4.56801 10.7705 4.62586 10.7453C4.6837 10.72 4.73543 10.6827 4.77751 10.6357C4.82377 10.5893 4.85977 10.5337 4.88323 10.4725C4.90668 10.4113 4.91707 10.346 4.91371 10.2806V4.58684C4.91858 4.51972 4.90893 4.45232 4.88543 4.38923C4.86194 4.32615 4.82513 4.26883 4.77751 4.22115V4.23161ZM7.92045 4.23161C7.87784 4.18601 7.82577 4.15024 7.76786 4.12678C7.70996 4.10332 7.64762 4.09274 7.58519 4.09579C7.52433 4.09284 7.46358 4.10353 7.40738 4.12703C7.35119 4.15053 7.30098 4.18625 7.26043 4.23161C7.2128 4.27757 7.1752 4.33284 7.14997 4.39395C7.12473 4.45507 7.1124 4.52076 7.11376 4.58684V10.2806C7.11294 10.4169 7.16557 10.5481 7.26043 10.6462C7.30226 10.6899 7.35271 10.7245 7.4086 10.7479C7.46449 10.7713 7.5246 10.7829 7.58519 10.782C7.64833 10.783 7.71095 10.7705 7.76879 10.7453C7.82664 10.72 7.87836 10.6827 7.92045 10.6357C7.96671 10.5893 8.00271 10.5337 8.02616 10.4725C8.04962 10.4113 8.06001 10.346 8.05665 10.2806V4.58684C8.06151 4.51972 8.05186 4.45232 8.02837 4.38923C8.00487 4.32615 7.96807 4.26883 7.92045 4.22115V4.23161ZM4.77751 4.23161C4.73491 4.18601 4.68283 4.15024 4.62493 4.12678C4.56703 4.10332 4.50468 4.09274 4.44226 4.09579C4.3814 4.09284 4.32064 4.10353 4.26445 4.12703C4.20825 4.15053 4.15804 4.18625 4.11749 4.23161C4.06986 4.27757 4.03227 4.33284 4.00703 4.39395C3.98179 4.45507 3.96946 4.52076 3.97082 4.58684V10.2806C3.97 10.4169 4.02263 10.5481 4.11749 10.6462C4.15933 10.6899 4.20978 10.7245 4.26566 10.7479C4.32155 10.7713 4.38166 10.7829 4.44226 10.782C4.50539 10.783 4.56801 10.7705 4.62586 10.7453C4.6837 10.72 4.73543 10.6827 4.77751 10.6357C4.82377 10.5893 4.85977 10.5337 4.88323 10.4725C4.90668 10.4113 4.91707 10.346 4.91371 10.2806V4.58684C4.91858 4.51972 4.90893 4.45232 4.88543 4.38923C4.86194 4.32615 4.82513 4.26883 4.77751 4.22115V4.23161ZM7.92045 4.23161C7.87784 4.18601 7.82577 4.15024 7.76786 4.12678C7.70996 4.10332 7.64762 4.09274 7.58519 4.09579C7.52433 4.09284 7.46358 4.10353 7.40738 4.12703C7.35119 4.15053 7.30098 4.18625 7.26043 4.23161C7.2128 4.27757 7.1752 4.33284 7.14997 4.39395C7.12473 4.45507 7.1124 4.52076 7.11376 4.58684V10.2806C7.11294 10.4169 7.16557 10.5481 7.26043 10.6462C7.30226 10.6899 7.35271 10.7245 7.4086 10.7479C7.46449 10.7713 7.5246 10.7829 7.58519 10.782C7.64833 10.783 7.71095 10.7705 7.76879 10.7453C7.82664 10.72 7.87836 10.6827 7.92045 10.6357C7.96671 10.5893 8.00271 10.5337 8.02616 10.4725C8.04962 10.4113 8.06001 10.346 8.05665 10.2806V4.58684C8.06151 4.51972 8.05186 4.45232 8.02837 4.38923C8.00487 4.32615 7.96807 4.26883 7.92045 4.22115V4.23161Z" fill="#FC0000"/>
</svg>
