<svg width="22" height="22" viewBox="0 0 22 22" fill="none" xmlns="http://www.w3.org/2000/svg">
<path d="M17.6672 6.85962L20.6182 9.99687C20.7071 10.0817 20.7879 10.1745 20.8596 10.2742C20.9592 10.3994 21.0088 10.5571 20.9987 10.7167C20.9886 10.8763 20.9196 11.0264 20.8049 11.1381C20.7572 11.1984 20.6973 11.248 20.6292 11.2838C20.5611 11.3196 20.4862 11.3408 20.4094 11.3459C20.3326 11.351 20.2556 11.3401 20.1833 11.3137C20.111 11.2873 20.0451 11.2461 19.9897 11.1927C19.8107 11.0321 19.6405 10.8622 19.4797 10.6834C19.3795 10.8016 19.4296 10.929 19.4296 11.0472C19.4296 13.654 19.4296 16.2608 19.4296 18.8676C19.4296 20.2316 18.7055 21 17.4167 21H12.8627V14.4209C12.8703 14.3196 12.8558 14.2179 12.8202 14.1228C12.7845 14.0277 12.7286 13.9415 12.6562 13.8701C12.5839 13.7987 12.4968 13.7439 12.4012 13.7095C12.3055 13.675 12.2034 13.6618 12.1021 13.6706H9.99361C9.36059 13.6706 9.11468 13.9253 9.11468 14.58V20.9864H4.56063C3.25817 20.9864 2.54319 20.227 2.54319 18.8221V16.9579M2.54319 14.8028V10.7107L2.43844 10.6289C2.32459 10.7744 2.2244 10.9381 2.09689 11.0836C2.04484 11.1528 1.97841 11.2099 1.90216 11.2511C1.8259 11.2923 1.74162 11.3166 1.6551 11.3222C1.56858 11.3278 1.48186 11.3147 1.40091 11.2837C1.31995 11.2527 1.24667 11.2046 1.18608 11.1426C1.12315 11.075 1.07435 10.9954 1.04252 10.9087C1.0107 10.822 0.996493 10.7298 1.00073 10.6375C1.00497 10.5453 1.02757 10.4548 1.06721 10.3713C1.10685 10.2879 1.16275 10.2131 1.23162 10.1515C1.73257 9.6013 2.23807 9.06933 2.74357 8.52827L8.83688 2.05371C10.153 0.648764 11.8744 0.648764 13.1951 2.05371L16.2736 5.33191" stroke="#214B5A" stroke-miterlimit="10" stroke-linecap="round"/>
</svg>
