<svg width="22" height="22" viewBox="0 0 22 22" fill="none" xmlns="http://www.w3.org/2000/svg">
<path d="M9.70996 5.04V5.77L10.56 4.93L12.13 3.38L10.77 2.02L9.72996 1L9.71996 2.1" stroke="#214B5A" stroke-linecap="round" stroke-linejoin="round"/>
<path d="M16.9802 9.54004H16.1802L17.1402 10.49L18.6002 11.94L20.0702 10.48L21.0002 9.56004L19.9702 9.55004" stroke="#214B5A" stroke-linecap="round" stroke-linejoin="round"/>
<path d="M4.99 12.3299H5.83L4.86 11.3799L3.4 9.93994L1.93 11.3999L1 12.3099L2.01 12.3199" stroke="#214B5A" stroke-linecap="round" stroke-linejoin="round"/>
<path d="M12.4403 19.88L12.4503 21L11.4103 19.97L10.0303 18.6L11.5903 17.06L12.4303 16.23V16.92" stroke="#214B5A" stroke-linecap="round" stroke-linejoin="round"/>
<path d="M17.1402 10.49C17.1402 10.65 17.1402 10.83 17.1402 11C17.1365 12.376 16.6669 13.7102 15.808 14.7852C14.9491 15.8602 13.7514 16.6127 12.4102 16.92" stroke="#214B5A" stroke-linecap="round" stroke-linejoin="round"/>
<path d="M4.85987 11.37C4.85987 11.25 4.85987 11.13 4.85987 11C4.8578 9.59238 5.34102 8.22705 6.22811 7.13412C7.1152 6.0412 8.35192 5.2875 9.72987 5" stroke="#214B5A" stroke-linecap="round" stroke-linejoin="round"/>
<path d="M10.5601 4.92001H11.0001C12.3731 4.91265 13.7093 5.36427 14.7963 6.20312C15.8834 7.04197 16.659 8.21995 17.0001 9.55002" stroke="#214B5A" stroke-linecap="round" stroke-linejoin="round"/>
<path d="M4.99023 12.3199C5.30101 13.6777 6.0642 14.8894 7.15449 15.7562C8.24478 16.623 9.59738 17.0933 10.9902 17.09C11.1868 17.0999 11.3837 17.0999 11.5802 17.09" stroke="#214B5A" stroke-linecap="round" stroke-linejoin="round"/>
<path d="M16.2299 18.35C15.1002 19.1393 13.803 19.6562 12.4399 19.86" stroke="#214B5A" stroke-linecap="round" stroke-linejoin="round"/>
<path d="M20.0698 10.48C20.0698 10.65 20.0698 10.83 20.0698 11C20.0809 12.4475 19.7376 13.8757 19.0698 15.16" stroke="#214B5A" stroke-linecap="round" stroke-linejoin="round"/>
<path d="M1.92984 11.4C1.91987 11.2668 1.91987 11.1331 1.92984 11C1.93491 8.82279 2.72906 6.72122 4.1651 5.08475C5.60115 3.44828 7.58174 2.38785 9.73984 2.09998" stroke="#214B5A" stroke-linecap="round" stroke-linejoin="round"/>
<path d="M10.77 2.02003H11C13.1511 2.0038 15.2377 2.75347 16.8867 4.1349C18.5356 5.51633 19.6392 7.4394 20 9.56004" stroke="#214B5A" stroke-linecap="round" stroke-linejoin="round"/>
<path d="M11.42 19.97H11C8.83139 19.9817 6.73052 19.2152 5.07905 17.8096C3.42759 16.404 2.33508 14.4527 2 12.3101" stroke="#214B5A" stroke-linecap="round" stroke-linejoin="round"/>
<path d="M14.3402 9.06006H13.4902" stroke="#214B5A" stroke-linecap="round" stroke-linejoin="round"/>
<path d="M11.4998 9.06006H7.83984" stroke="#214B5A" stroke-linecap="round" stroke-linejoin="round"/>
<path d="M14.3401 11H13.5801" stroke="#214B5A" stroke-linecap="round" stroke-linejoin="round"/>
<path d="M11.4198 11H7.83984" stroke="#214B5A" stroke-linecap="round" stroke-linejoin="round"/>
<path d="M14.34 12.9399H13.48" stroke="#214B5A" stroke-linecap="round" stroke-linejoin="round"/>
<path d="M11.5198 12.9399H7.83984" stroke="#214B5A" stroke-linecap="round" stroke-linejoin="round"/>
</svg>
