<svg width="18" height="18" viewBox="0 0 18 18" fill="none" xmlns="http://www.w3.org/2000/svg">
<path d="M9 17C13.4183 17 17 13.4183 17 9C17 4.58172 13.4183 1 9 1C4.58172 1 1 4.58172 1 9C1 13.4183 4.58172 17 9 17Z" stroke="#214B5A" stroke-miterlimit="10" stroke-linecap="round" stroke-linejoin="round"/>
<path d="M8.20002 17.0003C6.15558 15.1336 4.91113 12.2003 4.91113 8.82251C4.91113 5.71139 6.06669 2.95584 7.84447 1.08917" stroke="#214B5A" stroke-miterlimit="10" stroke-linecap="round" stroke-linejoin="round"/>
<path d="M10.2445 1.08917C12.0222 2.95584 13.1778 5.71139 13.1778 8.82251C13.1778 12.2003 11.8445 15.1336 9.88892 17.0003" stroke="#214B5A" stroke-miterlimit="10" stroke-linecap="round" stroke-linejoin="round"/>
<path d="M3.04446 3.66681C4.28891 5.3557 6.51113 6.51125 9.00002 6.51125C11.4889 6.51125 13.7111 5.3557 14.9556 3.7557" stroke="#214B5A" stroke-miterlimit="10" stroke-linecap="round" stroke-linejoin="round"/>
<path d="M14.9556 14.2441C13.7111 12.5552 11.4889 11.4885 9.00002 11.4885C6.51113 11.4885 4.28891 12.6441 3.04446 14.333" stroke="#214B5A" stroke-miterlimit="10" stroke-linecap="round" stroke-linejoin="round"/>
<path d="M9 1V17" stroke="#214B5A" stroke-miterlimit="10" stroke-linecap="round" stroke-linejoin="round"/>
<path d="M1 9H17" stroke="#214B5A" stroke-miterlimit="10" stroke-linecap="round" stroke-linejoin="round"/>
</svg>
