<svg width="22" height="22" viewBox="0 0 22 22" fill="none" xmlns="http://www.w3.org/2000/svg">
<path d="M9.19666 11.8448L3.5678 10.5782L2.16352 10.26C1.83106 10.204 1.53091 10.0269 1.32057 9.76277C1.11024 9.49861 1.00451 9.16593 1.02364 8.82845C1.02364 7.90942 1.02364 6.99038 1.02364 6.06545C1.0057 5.86804 1.03118 5.66909 1.09828 5.48263C1.16538 5.29618 1.27246 5.12676 1.41197 4.98631C1.55148 4.84587 1.72003 4.73782 1.90572 4.6698C2.09141 4.60177 2.28973 4.57544 2.48668 4.59263C3.82632 4.59263 5.16597 4.59263 6.49974 4.59263H19.3263C20.5014 4.59263 20.995 5.0816 20.995 6.25985C20.995 7.1023 20.995 7.94476 20.995 8.78721C21.0254 9.13773 20.9205 9.48659 20.7018 9.76176C20.4831 10.0369 20.1674 10.2174 19.8198 10.2659L13.2039 11.7623L12.8161 11.8683C12.8161 12.3279 12.8161 12.7756 12.8161 13.2174C12.829 13.2928 12.8239 13.3701 12.8012 13.4431C12.7785 13.5161 12.7389 13.5827 12.6855 13.6373C12.6322 13.692 12.5667 13.7331 12.4944 13.7574C12.4221 13.7817 12.345 13.7885 12.2696 13.7771H9.7431C9.32005 13.7771 9.20254 13.6298 9.19666 13.188C9.19079 12.7461 9.19666 12.3161 9.19666 11.8448ZM10.1191 11.8769V12.811H11.8818V11.8769H10.1191Z" stroke="#214B5A" stroke-miterlimit="10" stroke-linecap="round"/>
<path d="M20.9831 11.5328C20.9831 11.8627 20.9831 13.9423 20.9831 14.2722C20.9831 15.963 20.9831 17.6597 20.9831 19.3505C20.9831 20.458 20.4543 21 19.3496 21H2.76269C1.52293 21 1 20.4934 1 19.2327V13.5711C1 13.4474 1 11.5799 1 11.4562" stroke="#214B5A" stroke-miterlimit="10" stroke-linecap="round"/>
<path d="M14.8372 4.58691V2.57798C14.8486 2.36588 14.8148 2.15378 14.7381 1.95578C14.6614 1.75777 14.5436 1.57841 14.3924 1.42961C14.2412 1.28081 14.0602 1.16601 13.8613 1.0928C13.6624 1.01959 13.4503 0.989665 13.239 1.00503C12.5045 1.00503 11.7701 1.00503 11.0297 1.00503H8.75587C8.548 0.987659 8.33883 1.01542 8.14262 1.08643C7.94642 1.15744 7.76779 1.27003 7.6189 1.41652C7.47001 1.56301 7.35437 1.73995 7.27985 1.9353C7.20533 2.13065 7.17369 2.33982 7.18707 2.54853V4.59281" stroke="#214B5A" stroke-miterlimit="10" stroke-linecap="round"/>
</svg>
