<svg width="16" height="16" viewBox="0 0 16 16" fill="none" xmlns="http://www.w3.org/2000/svg">
<path d="M16 12.2184L14.8572 11.6469V10.2858C14.8558 9.47629 14.5683 8.69336 14.0454 8.07537C13.5226 7.45737 12.7981 7.04412 12 6.90864V5.71436H10.8572V6.90864C10.0591 7.04412 9.33462 7.45737 8.81179 8.07537C8.28895 8.69336 8.00142 9.47629 8.00003 10.2858V11.6469L6.85718 12.2184V14.8572H10.2857V16.0001H12.5715V14.8572H16V12.2184ZM14.8572 13.7144H8.00003V12.9246L9.14289 12.3532V10.2858C9.14289 9.67957 9.38371 9.09819 9.81236 8.66954C10.241 8.24089 10.8224 8.00007 11.4286 8.00007C12.0348 8.00007 12.6162 8.24089 13.0449 8.66954C13.4735 9.09819 13.7143 9.67957 13.7143 10.2858V12.3532L14.8572 12.9246V13.7144Z" fill="#3A606E"/>
<path d="M13.7143 2.28571C13.7143 1.98261 13.5939 1.69192 13.3796 1.47759C13.1652 1.26326 12.8745 1.14286 12.5714 1.14286H10.2857V0H9.14286V1.14286H4.57143V0H3.42857V1.14286H1.14286C0.839753 1.14286 0.549062 1.26326 0.334735 1.47759C0.120408 1.69192 0 1.98261 0 2.28571V13.7143C0 14.0174 0.120408 14.3081 0.334735 14.5224C0.549062 14.7367 0.839753 14.8571 1.14286 14.8571H3.42857V13.7143H1.14286V2.28571H3.42857V3.42857H4.57143V2.28571H9.14286V3.42857H10.2857V2.28571H12.5714V5.71429H13.7143V2.28571Z" fill="#3A606E"/>
</svg>
