<svg width="18" height="22" viewBox="0 0 18 22" fill="none" xmlns="http://www.w3.org/2000/svg">
<path d="M17 15.5305C17 17.1869 17 18.8655 17 20.4886C17 20.8777 16.8295 21 16.4137 21H15.2092M12.0113 21H1.59693C1.0533 21 1 21 1 20.4775V1.57889C1 1.03417 1.00004 1.00079 1.63961 1.00079H12.1606C12.4343 0.990008 12.7015 1.08953 12.9068 1.27871C14.1646 2.42004 15.4295 3.55395 16.7016 4.68046C16.7925 4.74878 16.8662 4.83909 16.9163 4.94365C16.9665 5.04821 16.9915 5.16393 16.9893 5.28081C16.9893 7.30407 16.9893 9.31621 16.9893 11.3284" stroke="#214B5A" stroke-linecap="round" stroke-linejoin="round"/>
<path d="M8.39783 4.7251C7.67314 4.78704 6.99813 5.13379 6.50931 5.69517C6.02049 6.25656 5.75441 6.99061 5.76495 7.74884C5.78612 8.51936 6.08767 9.25266 6.60833 9.79979C7.129 10.3469 7.82977 10.6669 8.56842 10.6948C9.31044 10.7447 10.042 10.492 10.6088 9.99011C11.1756 9.48819 11.5333 8.77628 11.6064 8.00457C10.711 8.00457 9.82621 8.00457 8.93081 8.00457C8.5364 8.00457 8.3765 7.86005 8.38716 7.44873C8.40848 6.54827 8.39783 5.63668 8.39783 4.7251Z" stroke="#214B5A" stroke-linecap="round" stroke-linejoin="round"/>
<path d="M14.1113 13.074H4.09131" stroke="#214B5A" stroke-linecap="round" stroke-linejoin="round"/>
<path d="M13.9089 17.6985H4.11279" stroke="#214B5A" stroke-linecap="round" stroke-linejoin="round"/>
<path d="M14.0153 15.3857H4.08057" stroke="#214B5A" stroke-linecap="round" stroke-linejoin="round"/>
<path d="M9.75146 4.9248V3.73529C9.75146 3.40179 9.9007 3.27951 10.2205 3.32398C10.8974 3.47081 11.5161 3.8274 11.9954 4.34711C12.4747 4.86682 12.7924 5.52541 12.9067 6.23658C12.9067 6.5145 12.8214 6.67015 12.5443 6.67015H10.1352C9.85804 6.67015 9.75146 6.51451 9.75146 6.2477V4.9248Z" stroke="#214B5A" stroke-linecap="round" stroke-linejoin="round"/>
</svg>
