<svg width="26" height="26" viewBox="0 0 26 26" fill="none" xmlns="http://www.w3.org/2000/svg">
<path d="M20.5 5.5C21.2203 5.22591 21.6074 5.12277 22.3792 4.83726L24.9976 9.24554C24.1686 9.88508 23.3568 10.5303 22.5164 11.1356C22.3625 11.2422 22.2372 11.3849 22.1515 11.5512C22.0657 11.7175 22.0222 11.9022 22.0247 12.0892V13.9622C22.0085 14.137 22.0379 14.3131 22.11 14.4732C22.1821 14.6333 22.2946 14.772 22.4364 14.8758C23.2882 15.4982 24.1514 16.1492 24.9861 16.8116L22.282 21.2655C21.333 20.8944 20.3897 20.5518 19.4635 20.1578C19.2938 20.0638 19.103 20.0144 18.9089 20.0144C18.7149 20.0144 18.5241 20.0638 18.3544 20.1578L16.6736 21.1285C16.5254 21.2 16.3963 21.3056 16.2969 21.4366C16.1976 21.5677 16.1307 21.7204 16.1019 21.8822C15.9475 22.9158 15.7589 23.9436 15.5873 25H10.3506C10.2077 24.0464 10.0533 23.1214 9.94466 22.1906C9.92062 21.9528 9.83878 21.7244 9.70627 21.5254C9.57375 21.3263 9.3946 21.1627 9.18432 21.0485L7.635 20.1749C7.50113 20.083 7.34708 20.0247 7.18588 20.0048C7.02468 19.9849 6.86107 20.0041 6.70885 20.0607C5.70265 20.4433 4.68504 20.8087 3.61024 21.2027C2.72982 19.7238 1.89513 18.2848 0.997559 16.7887C1.80937 16.1663 2.60404 15.5268 3.43301 14.9329C3.61629 14.8089 3.76144 14.6364 3.8523 14.4347C3.94315 14.2331 3.97611 14.0102 3.94752 13.7909V11.8037C3.92095 11.6537 3.86289 11.5111 3.77717 11.3851C3.69144 11.2591 3.57999 11.1527 3.45014 11.0728C2.63261 10.4561 1.84366 9.80515 1.01469 9.14276L3.68453 4.74589C4.6507 5.12277 5.60544 5.48822 6.54303 5.88794C6.72942 5.96173 6.93107 5.98886 7.13037 5.96696C7.32966 5.94507 7.52056 5.87481 7.68643 5.76231L9.43015 4.7973C9.54726 4.73351 9.64669 4.64169 9.71952 4.53007C9.79236 4.41845 9.83633 4.29051 9.84748 4.15774C10.0076 3.11278 10.2019 2.06781 10.3792 1H15.6102C15.7474 1.91934 15.9132 2.81015 15.999 3.70665C16.004 3.99398 16.0971 4.27285 16.2658 4.50566C16.4345 4.73846 16.6706 4.914 16.9423 5.00858L17.8227 5.52249" stroke="#3A606E" stroke-width="1.5" stroke-miterlimit="10" stroke-linecap="round"/>
<path d="M17.0446 11.6096C17.2129 12.0816 17.2954 12.5825 17.2852 13.0886C17.2826 14.0613 16.9512 15.0047 16.3447 15.7657C15.7382 16.5267 14.8921 17.0609 13.9436 17.2815C12.9952 17.5022 11.9998 17.3964 11.1191 16.9814C10.2383 16.5664 9.52367 15.8664 9.09102 14.995C8.65838 14.1235 8.5331 13.1316 8.73546 12.1802C8.93782 11.2287 9.45596 10.3733 10.2059 9.7528C10.9559 9.13226 11.8937 8.78289 12.8673 8.76132C13.5063 8.74716 14.1362 8.87474 14.7133 9.12997" stroke="#3A606E" stroke-width="1.5" stroke-miterlimit="10" stroke-linecap="round"/>
</svg>
