<svg width="14" height="14" viewBox="0 0 14 14" fill="none" xmlns="http://www.w3.org/2000/svg">
<circle cx="7" cy="7" r="6.5" fill="white" stroke="#7C888C"/>
<path d="M5.74439 8.23267L9.44843 4.3796C9.56353 4.25988 9.71001 4.20001 9.88789 4.20001C10.0658 4.20001 10.2123 4.25988 10.3274 4.3796C10.4425 4.49933 10.5 4.65171 10.5 4.83675C10.5 5.02178 10.4425 5.17416 10.3274 5.29389L6.18386 9.60409C6.0583 9.73471 5.91181 9.80001 5.74439 9.80001C5.57698 9.80001 5.43049 9.73471 5.30493 9.60409L3.67265 7.90613C3.55755 7.78641 3.5 7.63403 3.5 7.44899C3.5 7.26396 3.55755 7.11158 3.67265 6.99185C3.78774 6.87212 3.93423 6.81226 4.11211 6.81226C4.28998 6.81226 4.43647 6.87212 4.55157 6.99185L5.74439 8.23267Z" fill="#7C888C"/>
</svg>
